<svg width="24" height="24" viewBox="0 0 24 24" fill="none" xmlns="http://www.w3.org/2000/svg">
<path d="M18.4434 22.1173C17.2457 23.2783 15.9381 23.095 14.6794 22.5451C13.3473 21.9829 12.1253 21.9585 10.7199 22.5451C8.96012 23.3027 8.03135 23.0828 6.98037 22.1173C1.01668 15.9703 1.89657 6.60929 8.66682 6.26711C10.3166 6.35266 11.4654 7.17144 12.4308 7.24477C13.8728 6.95147 15.2538 6.10824 16.7936 6.21823C18.6389 6.36488 20.0321 7.09812 20.9486 8.41795C17.1358 10.7032 18.0401 15.7259 21.5352 17.1313C20.8386 18.9644 19.9343 20.7853 18.4311 22.1296L18.4434 22.1173ZM12.3086 6.19379C12.1253 3.46858 14.3372 1.21997 16.8791 1C17.2335 4.15294 14.0195 6.49931 12.3086 6.19379Z" fill="#5B4239"/>
</svg>
