<svg width="10" height="10" viewBox="0 0 10 10" fill="none" xmlns="http://www.w3.org/2000/svg">
<rect width="10" height="10" rx="5" fill="#3CCF4E"/>
<g clip-path="url(#clip0_259_259)">
<path d="M6.88268 4.08591C7.03889 4.24211 7.03889 4.49537 6.88268 4.65158L4.61999 6.91426C4.46379 7.07047 4.21053 7.07047 4.05432 6.91426L3.77148 6.63143L6.31701 4.08591C6.47322 3.9297 6.72648 3.9297 6.88268 4.08591Z" fill="white"/>
<path d="M3.11716 5.4111C3.27336 5.25489 3.52662 5.25489 3.68283 5.4111L4.90298 6.63125L4.62014 6.91409C4.46393 7.07029 4.21068 7.07029 4.05447 6.91409L3.11715 5.97677C2.96095 5.82057 2.96095 5.56731 3.11716 5.4111Z" fill="white"/>
</g>
<defs>
<clipPath id="clip0_259_259">
<rect width="4" height="4" fill="white" transform="translate(3 3.5)"/>
</clipPath>
</defs>
</svg>
