<svg width="20" height="20" viewBox="0 0 20 20" fill="none" xmlns="http://www.w3.org/2000/svg">
<path d="M17.5 2.5H13.3333C13.3333 1.12109 11.8385 0 10 0C8.16146 0 6.66667 1.12109 6.66667 2.5H2.5C1.11979 2.5 0 3.33984 0 4.375V18.125C0 19.1602 1.11979 20 2.5 20H17.5C18.8802 20 20 19.1602 20 18.125V4.375C20 3.33984 18.8802 2.5 17.5 2.5ZM5 16.5625C4.30729 16.5625 3.75 16.1445 3.75 15.625C3.75 15.1055 4.30729 14.6875 5 14.6875C5.69271 14.6875 6.25 15.1055 6.25 15.625C6.25 16.1445 5.69271 16.5625 5 16.5625ZM5 12.8125C4.30729 12.8125 3.75 12.3945 3.75 11.875C3.75 11.3555 4.30729 10.9375 5 10.9375C5.69271 10.9375 6.25 11.3555 6.25 11.875C6.25 12.3945 5.69271 12.8125 5 12.8125ZM5 9.0625C4.30729 9.0625 3.75 8.64453 3.75 8.125C3.75 7.60547 4.30729 7.1875 5 7.1875C5.69271 7.1875 6.25 7.60547 6.25 8.125C6.25 8.64453 5.69271 9.0625 5 9.0625ZM10 1.5625C10.6927 1.5625 11.25 1.98047 11.25 2.5C11.25 3.01953 10.6927 3.4375 10 3.4375C9.30729 3.4375 8.75 3.01953 8.75 2.5C8.75 1.98047 9.30729 1.5625 10 1.5625ZM16.6667 15.9375C16.6667 16.1094 16.4792 16.25 16.25 16.25H8.75C8.52083 16.25 8.33333 16.1094 8.33333 15.9375V15.3125C8.33333 15.1406 8.52083 15 8.75 15H16.25C16.4792 15 16.6667 15.1406 16.6667 15.3125V15.9375ZM16.6667 12.1875C16.6667 12.3594 16.4792 12.5 16.25 12.5H8.75C8.52083 12.5 8.33333 12.3594 8.33333 12.1875V11.5625C8.33333 11.3906 8.52083 11.25 8.75 11.25H16.25C16.4792 11.25 16.6667 11.3906 16.6667 11.5625V12.1875ZM16.6667 8.4375C16.6667 8.60938 16.4792 8.75 16.25 8.75H8.75C8.52083 8.75 8.33333 8.60938 8.33333 8.4375V7.8125C8.33333 7.64062 8.52083 7.5 8.75 7.5H16.25C16.4792 7.5 16.6667 7.64062 16.6667 7.8125V8.4375Z" fill="#5B4239"/>
</svg>
