<svg width="32" height="32" viewBox="0 0 32 32" fill="none" xmlns="http://www.w3.org/2000/svg">
<path d="M15.496 19.254L15.028 6.8H17.966L17.472 19.254H15.496ZM16.51 25.156C16.0247 25.156 15.6173 24.9913 15.288 24.662C14.9587 24.3327 14.794 23.9427 14.794 23.492C14.794 23.0067 14.9587 22.608 15.288 22.296C15.6173 21.984 16.0247 21.828 16.51 21.828C16.9953 21.828 17.394 21.984 17.706 22.296C18.018 22.608 18.174 23.0067 18.174 23.492C18.174 23.9427 18.018 24.3327 17.706 24.662C17.394 24.9913 16.9953 25.156 16.51 25.156Z" fill="#F48080"/>
<circle cx="16" cy="16" r="15.5" stroke="#EF8C8C"/>
</svg>
