<svg width="22" height="22" viewBox="0 0 22 22" fill="none" xmlns="http://www.w3.org/2000/svg">
<path d="M17.2625 5.075L15.6875 3.6875L17.3375 1.0625C17.45 0.875004 17.375 0.650004 17.225 0.537504C17.0375 0.425004 16.8125 0.500004 16.7 0.650004L15.125 3.2L14.2625 2.45C14.1875 2.4125 14.075 2.375 14 2.375H3.5C3.425 2.375 3.3125 2.4125 3.2375 2.45L0.2375 5.075C0.1625 5.1875 0.125 5.2625 0.125 5.375V20.375C0.125 20.6 0.275 20.75 0.5 20.75H9.425C9.425 20.9 9.4625 21.0125 9.5375 21.1625C9.65 21.3125 9.8375 21.5 10.2875 21.5C10.625 21.5 10.925 21.3875 11.15 21.2375C11.2625 21.3875 11.4875 21.5 11.9 21.5C12.2375 21.5 12.5375 21.3875 12.7625 21.2375C12.875 21.3875 13.1 21.5 13.5125 21.5C14.225 21.5 14.6375 21.05 14.8625 20.75H17.1125C17.3375 20.75 17.4875 20.6 17.4875 20.375V15.875H17.75C17.9 15.875 18.0125 15.8 18.0875 15.6875L21.8375 9.3125C21.95 9.125 21.875 8.9 21.6875 8.7875C21.5 8.675 21.275 8.75 21.1625 8.9375L17.525 15.125C16.4 15.0875 14.675 14.0375 14.4125 13.25L21.4625 1.0625C21.5375 0.875004 21.5 0.650004 21.3125 0.537504C21.125 0.462504 20.9 0.500004 20.7875 0.687504L17.375 6.65V5.375C17.375 5.2625 17.3375 5.1875 17.2625 5.075ZM15.9875 5H11.975L10.8875 3.125H13.85L15.9875 5ZM6.125 5.75H11.375V9.65L8.9 8.4125C8.7875 8.375 8.675 8.375 8.5625 8.4125L6.125 9.65V5.75ZM10.025 3.125L11.1125 5H6.3875L7.475 3.125H10.025ZM3.65 3.125H6.6125L5.525 5H1.5125L3.65 3.125ZM0.875 5.75H5.375V10.25C5.375 10.3625 5.45 10.5125 5.5625 10.5875C5.675 10.6625 5.825 10.6625 5.9375 10.5875L8.7875 9.1625L11.6375 10.5875C11.6375 10.625 11.675 10.625 11.75 10.625C11.825 10.625 11.9 10.625 11.9375 10.5875C12.05 10.5125 12.125 10.4 12.125 10.25V5.75H16.625V7.925L13.6625 13.0625C13.5875 13.175 13.5875 13.2875 13.6625 13.4C13.7375 13.55 13.8125 13.7 13.8875 13.8125L13.775 14L11.7125 14.375C11.5625 14.375 11.15 14.45 10.7375 14.8625L9.2375 16.3625C9.125 16.475 9.0875 16.6625 9.1625 16.8125C9.3875 17.2625 9.9875 17.75 10.775 17.3375C10.775 17.3375 10.8125 17.3375 10.8125 17.3L10.85 17.2625L9.65 20H0.875V5.75ZM13.4375 20.75C13.325 20.75 13.25 20.7125 13.25 20.75C13.25 20.7125 13.25 20.675 13.2875 20.6C13.2875 20.5625 13.325 20.5625 13.325 20.5625L14.375 18.6875C14.4875 18.5 14.4125 18.275 14.225 18.1625C14.0375 18.05 13.8125 18.125 13.7 18.3125L12.6875 20.15L12.65 20.1875C12.65 20.1875 12.65 20.225 12.6125 20.2625C12.5375 20.4125 12.275 20.75 11.8625 20.75C11.75 20.75 11.675 20.7125 11.675 20.75C11.675 20.7125 11.675 20.6 11.7125 20.5625L12.8375 18.3125C12.9125 18.125 12.8375 17.9 12.6875 17.825C12.5 17.75 12.275 17.825 12.2 17.975L11.075 20.225C11.075 20.225 10.775 20.7875 10.2875 20.7875H10.175C10.175 20.75 10.2125 20.6375 10.25 20.5625L12.125 16.4375C12.2 16.2875 12.1625 16.1 12.0125 15.9875C11.9 15.875 11.7125 15.875 11.5625 15.95L10.475 16.7C10.2875 16.775 10.1375 16.7375 10.025 16.7L11.3 15.425C11.525 15.125 11.75 15.125 11.75 15.125H11.825L14.075 14.75C14.1875 14.75 14.2625 14.675 14.3375 14.6L14.4125 14.4875C14.975 15.0875 15.6875 15.5375 16.475 15.725L14.225 20.225C14.225 20.225 13.925 20.75 13.4375 20.75ZM15.1625 20L16.625 17.075V20H15.1625Z" fill="#383D48"/>
<path d="M2.75 16.625H4.625C4.85 16.625 5 16.475 5 16.25C5 16.025 4.85 15.875 4.625 15.875H2.75C2.525 15.875 2.375 16.025 2.375 16.25C2.375 16.475 2.525 16.625 2.75 16.625ZM5.75 17.75H2.75C2.525 17.75 2.375 17.9 2.375 18.125C2.375 18.35 2.525 18.5 2.75 18.5H5.75C5.975 18.5 6.125 18.35 6.125 18.125C6.125 17.9 5.975 17.75 5.75 17.75Z" fill="#383D48"/>
</svg>
