<svg width="22" height="22" viewBox="0 0 22 22" fill="none" xmlns="http://www.w3.org/2000/svg">
<path d="M16.1516 8.81836H11.3391C10.9633 8.81836 10.6516 8.50669 10.6516 8.13086C10.6516 7.75503 10.9633 7.44336 11.3391 7.44336H16.1516C16.5274 7.44336 16.8391 7.75503 16.8391 8.13086C16.8391 8.50669 16.5366 8.81836 16.1516 8.81836Z" fill="#5B4239"/>
<path d="M6.52676 9.51504C6.35259 9.51504 6.17843 9.45088 6.04093 9.31338L5.35343 8.62588C5.08759 8.36004 5.08759 7.92004 5.35343 7.65421C5.61926 7.38838 6.05926 7.38838 6.32509 7.65421L6.52676 7.85588L8.10343 6.27921C8.36926 6.01338 8.80926 6.01338 9.07509 6.27921C9.34093 6.54504 9.34093 6.98504 9.07509 7.25088L7.01259 9.31338C6.88426 9.44171 6.71009 9.51504 6.52676 9.51504Z" fill="#5B4239"/>
<path d="M16.1516 15.2351H11.3391C10.9633 15.2351 10.6516 14.9234 10.6516 14.5476C10.6516 14.1718 10.9633 13.8601 11.3391 13.8601H16.1516C16.5274 13.8601 16.8391 14.1718 16.8391 14.5476C16.8391 14.9234 16.5366 15.2351 16.1516 15.2351Z" fill="#5B4239"/>
<path d="M6.52676 15.9315C6.35259 15.9315 6.17843 15.8674 6.04093 15.7299L5.35343 15.0424C5.08759 14.7765 5.08759 14.3365 5.35343 14.0707C5.61926 13.8049 6.05926 13.8049 6.32509 14.0707L6.52676 14.2724L8.10343 12.6957C8.36926 12.4299 8.80926 12.4299 9.07509 12.6957C9.34093 12.9615 9.34093 13.4015 9.07509 13.6674L7.01259 15.7299C6.88426 15.8582 6.71009 15.9315 6.52676 15.9315Z" fill="#5B4239"/>
<path d="M13.7499 20.8541H8.24992C3.27242 20.8541 1.14575 18.7274 1.14575 13.7499V8.24992C1.14575 3.27242 3.27242 1.14575 8.24992 1.14575H13.7499C18.7274 1.14575 20.8541 3.27242 20.8541 8.24992V13.7499C20.8541 18.7274 18.7274 20.8541 13.7499 20.8541ZM8.24992 2.52075C4.02409 2.52075 2.52075 4.02409 2.52075 8.24992V13.7499C2.52075 17.9758 4.02409 19.4791 8.24992 19.4791H13.7499C17.9758 19.4791 19.4791 17.9758 19.4791 13.7499V8.24992C19.4791 4.02409 17.9758 2.52075 13.7499 2.52075H8.24992Z" fill="#5B4239"/>
</svg>
