<svg width="24" height="14" viewBox="0 0 24 14" fill="none" xmlns="http://www.w3.org/2000/svg">
<mask id="path-1-inside-1_35_420" fill="white">
<path d="M20.6054 13.6437C20.1987 13.644 19.801 13.5237 19.4627 13.298C19.1244 13.0722 18.8607 12.7512 18.7048 12.3756C18.549 11.9999 18.5081 11.5865 18.5872 11.1876C18.6664 10.7886 18.8621 10.4221 19.1495 10.1345C19.437 9.84677 19.8034 9.65081 20.2022 9.57135C20.6011 9.4919 21.0146 9.53253 21.3903 9.6881C21.7661 9.84367 22.0873 10.1072 22.3133 10.4453C22.5393 10.7835 22.6599 11.181 22.6599 11.5877C22.6596 12.1327 22.4431 12.6553 22.0579 13.0407C21.6727 13.4262 21.1503 13.6431 20.6054 13.6437ZM20.6054 10.2817C20.347 10.2814 20.0944 10.3578 19.8794 10.5011C19.6644 10.6444 19.4968 10.8483 19.3977 11.0869C19.2987 11.3255 19.2726 11.5882 19.3228 11.8416C19.373 12.095 19.4973 12.3279 19.6799 12.5107C19.8625 12.6935 20.0952 12.818 20.3486 12.8685C20.6019 12.919 20.8646 12.8933 21.1033 12.7945C21.3421 12.6957 21.5461 12.5283 21.6897 12.3135C21.8333 12.0987 21.9099 11.8461 21.9099 11.5877C21.9098 11.2417 21.7723 10.9098 21.5278 10.6649C21.2832 10.4201 20.9515 10.2823 20.6054 10.2817ZM9.77089 13.6437C9.36417 13.6441 8.96647 13.5239 8.62809 13.2982C8.28972 13.0725 8.02589 12.7516 7.86997 12.3759C7.71405 12.0003 7.67305 11.5868 7.75215 11.1879C7.83126 10.7889 8.02692 10.4224 8.31437 10.1346C8.60183 9.8469 8.96817 9.65089 9.36705 9.57139C9.76593 9.4919 10.1794 9.5325 10.5552 9.68805C10.931 9.84361 11.2522 10.1071 11.4783 10.4453C11.7043 10.7834 11.8249 11.181 11.8249 11.5877C11.8245 12.1326 11.608 12.655 11.223 13.0404C10.8379 13.4258 10.3157 13.6428 9.77089 13.6437ZM9.77089 10.2817C9.5125 10.2813 9.25981 10.3576 9.04477 10.5009C8.82974 10.6441 8.66203 10.848 8.56288 11.0866C8.46372 11.3252 8.43758 11.5878 8.48774 11.8413C8.53791 12.0948 8.66214 12.3277 8.8447 12.5105C9.02727 12.6934 9.25997 12.8179 9.51337 12.8685C9.76676 12.9191 10.0295 12.8933 10.2682 12.7945C10.507 12.6957 10.7111 12.5283 10.8547 12.3135C10.9982 12.0987 11.0749 11.8461 11.0749 11.5877C11.0746 11.2418 10.9372 10.9101 10.6928 10.6653C10.4484 10.4204 10.1168 10.2825 9.77089 10.2817Z"/>
</mask>
<path d="M20.6054 13.6437C20.1987 13.644 19.801 13.5237 19.4627 13.298C19.1244 13.0722 18.8607 12.7512 18.7048 12.3756C18.549 11.9999 18.5081 11.5865 18.5872 11.1876C18.6664 10.7886 18.8621 10.4221 19.1495 10.1345C19.437 9.84677 19.8034 9.65081 20.2022 9.57135C20.6011 9.4919 21.0146 9.53253 21.3903 9.6881C21.7661 9.84367 22.0873 10.1072 22.3133 10.4453C22.5393 10.7835 22.6599 11.181 22.6599 11.5877C22.6596 12.1327 22.4431 12.6553 22.0579 13.0407C21.6727 13.4262 21.1503 13.6431 20.6054 13.6437ZM20.6054 10.2817C20.347 10.2814 20.0944 10.3578 19.8794 10.5011C19.6644 10.6444 19.4968 10.8483 19.3977 11.0869C19.2987 11.3255 19.2726 11.5882 19.3228 11.8416C19.373 12.095 19.4973 12.3279 19.6799 12.5107C19.8625 12.6935 20.0952 12.818 20.3486 12.8685C20.6019 12.919 20.8646 12.8933 21.1033 12.7945C21.3421 12.6957 21.5461 12.5283 21.6897 12.3135C21.8333 12.0987 21.9099 11.8461 21.9099 11.5877C21.9098 11.2417 21.7723 10.9098 21.5278 10.6649C21.2832 10.4201 20.9515 10.2823 20.6054 10.2817ZM9.77089 13.6437C9.36417 13.6441 8.96647 13.5239 8.62809 13.2982C8.28972 13.0725 8.02589 12.7516 7.86997 12.3759C7.71405 12.0003 7.67305 11.5868 7.75215 11.1879C7.83126 10.7889 8.02692 10.4224 8.31437 10.1346C8.60183 9.8469 8.96817 9.65089 9.36705 9.57139C9.76593 9.4919 10.1794 9.5325 10.5552 9.68805C10.931 9.84361 11.2522 10.1071 11.4783 10.4453C11.7043 10.7834 11.8249 11.181 11.8249 11.5877C11.8245 12.1326 11.608 12.655 11.223 13.0404C10.8379 13.4258 10.3157 13.6428 9.77089 13.6437ZM9.77089 10.2817C9.5125 10.2813 9.25981 10.3576 9.04477 10.5009C8.82974 10.6441 8.66203 10.848 8.56288 11.0866C8.46372 11.3252 8.43758 11.5878 8.48774 11.8413C8.53791 12.0948 8.66214 12.3277 8.8447 12.5105C9.02727 12.6934 9.25997 12.8179 9.51337 12.8685C9.76676 12.9191 10.0295 12.8933 10.2682 12.7945C10.507 12.6957 10.7111 12.5283 10.8547 12.3135C10.9982 12.0987 11.0749 11.8461 11.0749 11.5877C11.0746 11.2418 10.9372 10.9101 10.6928 10.6653C10.4484 10.4204 10.1168 10.2825 9.77089 10.2817Z" fill="#5B4239"/>
<path d="M20.6054 13.6437L20.6068 15.6437L20.6078 15.6437L20.6054 13.6437ZM22.6599 11.5877L24.6599 11.5887V11.5877L22.6599 11.5877ZM20.6054 10.2817L20.6085 8.28174L20.6077 8.28174L20.6054 10.2817ZM21.9099 11.5877L23.9099 11.5877V11.587L21.9099 11.5877ZM9.77089 13.6437L9.77284 15.6437L9.77429 15.6437L9.77089 13.6437ZM11.8249 11.5877L13.8249 11.5892V11.5877L11.8249 11.5877ZM9.77089 10.2817L9.77548 8.28174L9.77395 8.28174L9.77089 10.2817ZM11.0749 11.5877L13.0749 11.5877L13.0749 11.5862L11.0749 11.5877ZM20.6039 11.6437C20.5929 11.6437 20.582 11.6405 20.5728 11.6343L18.3527 14.9616C19.02 15.4069 19.8045 15.6443 20.6068 15.6437L20.6039 11.6437ZM20.5728 11.6343C20.5636 11.6282 20.5564 11.6194 20.5522 11.6092L16.8575 13.142C17.1649 13.883 17.6853 14.5163 18.3527 14.9616L20.5728 11.6343ZM20.5522 11.6092C20.5479 11.599 20.5468 11.5877 20.549 11.5768L16.6255 10.7983C16.4693 11.5853 16.55 12.4009 16.8575 13.142L20.5522 11.6092ZM20.549 11.5768C20.5511 11.566 20.5564 11.556 20.5643 11.5482L17.7348 8.72076C17.1677 9.2883 16.7816 10.0113 16.6255 10.7983L20.549 11.5768ZM20.5643 11.5482C20.5721 11.5403 20.5821 11.535 20.593 11.5328L19.8115 7.60989C19.0246 7.76663 18.3019 8.15322 17.7348 8.72076L20.5643 11.5482ZM20.593 11.5328C20.6038 11.5307 20.6151 11.5318 20.6253 11.536L22.1554 7.8402C21.4141 7.5333 20.5984 7.45315 19.8115 7.60989L20.593 11.5328ZM20.6253 11.536C20.6355 11.5402 20.6443 11.5474 20.6504 11.5566L23.9761 9.33404C23.5303 8.66697 22.8967 8.1471 22.1554 7.8402L20.6253 11.536ZM20.6504 11.5566C20.6566 11.5658 20.6599 11.5767 20.6599 11.5877L24.6599 11.5877C24.6599 10.7854 24.4219 10.0011 23.9761 9.33404L20.6504 11.5566ZM20.6599 11.5868C20.6599 11.6019 20.6539 11.6163 20.6432 11.627L23.4727 14.4544C24.2324 13.6942 24.6594 12.6635 24.6599 11.5887L20.6599 11.5868ZM20.6432 11.627C20.6325 11.6377 20.6181 11.6437 20.603 11.6437L20.6078 15.6437C21.6826 15.6424 22.713 15.2147 23.4727 14.4544L20.6432 11.627ZM20.6077 8.28174C19.9537 8.28099 19.3141 8.47425 18.7699 8.83705L20.9889 12.1652C20.8746 12.2413 20.7404 12.2819 20.6031 12.2817L20.6077 8.28174ZM18.7699 8.83705C18.2258 9.19987 17.8014 9.71593 17.5506 10.32L21.2448 11.8539C21.1922 11.9807 21.1031 12.089 20.9889 12.1652L18.7699 8.83705ZM17.5506 10.32C17.2998 10.924 17.2338 11.5888 17.361 12.2304L21.2847 11.4528C21.3113 11.5875 21.2975 11.7271 21.2448 11.8539L17.5506 10.32ZM17.361 12.2304C17.4881 12.8719 17.8027 13.4614 18.2649 13.9241L21.0949 11.0973C21.1919 11.1944 21.258 11.3182 21.2847 11.4528L17.361 12.2304ZM18.2649 13.9241C18.7271 14.3868 19.3161 14.7021 19.9575 14.8299L20.7396 10.9071C20.8742 10.934 20.9979 11.0002 21.0949 11.0973L18.2649 13.9241ZM19.9575 14.8299C20.5989 14.9578 21.2639 14.8926 21.8682 14.6424L20.3385 10.9465C20.4653 10.894 20.6049 10.8803 20.7396 10.9071L19.9575 14.8299ZM21.8682 14.6424C22.4725 14.3923 22.989 13.9686 23.3525 13.4248L20.0269 11.2021C20.1032 11.0879 20.2116 10.999 20.3385 10.9465L21.8682 14.6424ZM23.3525 13.4248C23.7159 12.8811 23.9099 12.2418 23.9099 11.5877L19.9099 11.5877C19.9099 11.4504 19.9506 11.3162 20.0269 11.2021L23.3525 13.4248ZM23.9099 11.587C23.9096 10.7111 23.5617 9.8712 22.9428 9.25153L20.1127 12.0783C19.9829 11.9484 19.91 11.7722 19.9099 11.5885L23.9099 11.587ZM22.9428 9.25153C22.3238 8.63186 21.4843 8.28308 20.6085 8.28174L20.6023 12.2817C20.4186 12.2815 20.2426 12.2083 20.1127 12.0783L22.9428 9.25153ZM9.76895 11.6437C9.75787 11.6437 9.74704 11.6405 9.73782 11.6343L7.51837 14.9621C8.18589 15.4073 8.97047 15.6445 9.77284 15.6437L9.76895 11.6437ZM9.73782 11.6343C9.7286 11.6282 9.72142 11.6194 9.71717 11.6092L6.02277 13.1426C6.33037 13.8837 6.85085 14.5169 7.51837 14.9621L9.73782 11.6343ZM9.71717 11.6092C9.71292 11.599 9.71181 11.5877 9.71396 11.5768L5.79035 10.7989C5.63429 11.5859 5.71517 12.4016 6.02277 13.1426L9.71717 11.6092ZM9.71396 11.5768C9.71612 11.566 9.72145 11.556 9.72927 11.5482L6.89947 8.72111C6.33239 9.28875 5.9464 10.0118 5.79035 10.7989L9.71396 11.5768ZM9.72927 11.5482C9.7371 11.5403 9.74708 11.535 9.75795 11.5328L8.97615 7.60996C8.18926 7.76679 7.46656 8.15347 6.89947 8.72111L9.72927 11.5482ZM9.75795 11.5328C9.76881 11.5307 9.78007 11.5318 9.79031 11.536L11.3201 7.84011C10.5788 7.53323 9.76305 7.45314 8.97615 7.60996L9.75795 11.5328ZM9.79031 11.536C9.80055 11.5402 9.80929 11.5474 9.81545 11.5566L13.1411 9.33394C12.6952 8.66684 12.0615 8.14698 11.3201 7.84011L9.79031 11.536ZM9.81545 11.5566C9.82161 11.5658 9.82489 11.5767 9.82489 11.5877L13.8249 11.5877C13.8249 10.7854 13.5869 10.001 13.1411 9.33394L9.81545 11.5566ZM9.82489 11.5863C9.82488 11.6015 9.81883 11.6161 9.80807 11.6269L12.6379 14.4539C13.3972 13.6938 13.8241 12.6636 13.8249 11.5892L9.82489 11.5863ZM9.80807 11.6269C9.79731 11.6377 9.78272 11.6437 9.76749 11.6437L9.77429 15.6437C10.8487 15.6419 11.8785 15.214 12.6379 14.4539L9.80807 11.6269ZM9.77395 8.28174C9.11987 8.28074 8.48019 8.47378 7.93586 8.83644L10.1537 12.1653C10.0394 12.2414 9.90514 12.2819 9.76783 12.2817L9.77395 8.28174ZM7.93586 8.83644C7.39153 9.1991 6.967 9.71507 6.716 10.3191L10.4098 11.8541C10.3571 11.9808 10.268 12.0892 10.1537 12.1653L7.93586 8.83644ZM6.716 10.3191C6.465 10.9231 6.39881 11.588 6.5258 12.2296L10.4497 11.453C10.4763 11.5877 10.4624 11.7273 10.4098 11.8541L6.716 10.3191ZM6.5258 12.2296C6.65279 12.8712 6.96726 13.4608 7.42941 13.9236L10.26 11.0974C10.357 11.1945 10.423 11.3183 10.4497 11.453L6.5258 12.2296ZM7.42941 13.9236C7.89156 14.3865 8.48062 14.7019 9.12206 14.8298L9.90468 10.9071C10.0393 10.934 10.163 11.0002 10.26 11.0974L7.42941 13.9236ZM9.12206 14.8298C9.7635 14.9578 10.4285 14.8926 11.0329 14.6426L9.50356 10.9465C9.63043 10.894 9.77002 10.8803 9.90468 10.9071L9.12206 14.8298ZM11.0329 14.6426C11.6373 14.3925 12.1539 13.9688 12.5174 13.425L9.19193 11.2021C9.26823 11.0879 9.37668 10.999 9.50356 10.9465L11.0329 14.6426ZM12.5174 13.425C12.8809 12.8812 13.0749 12.2418 13.0749 11.5877L9.07489 11.5877C9.07489 11.4504 9.11562 11.3162 9.19193 11.2021L12.5174 13.425ZM13.0749 11.5862C13.0742 10.7109 12.7266 9.87154 12.1081 9.25213L9.27749 12.0784C9.14789 11.9486 9.07503 11.7727 9.07489 11.5893L13.0749 11.5862ZM12.1081 9.25213C11.4896 8.63271 10.6508 8.28375 9.77548 8.28174L9.7663 12.2817C9.58287 12.2813 9.40709 12.2082 9.27749 12.0784L12.1081 9.25213Z" fill="#5B4239" mask="url(#path-1-inside-1_35_420)"/>
<mask id="path-3-inside-2_35_420" fill="white">
<path d="M23.3096 11.9629H22.2841C22.1847 11.9629 22.0893 11.9233 22.019 11.853C21.9486 11.7827 21.9091 11.6873 21.9091 11.5879C21.9091 11.4884 21.9486 11.393 22.019 11.3227C22.0893 11.2524 22.1847 11.2129 22.2841 11.2129H23.2036V9.22435C23.2034 8.95551 23.1345 8.69117 23.0036 8.45636L20.9736 4.81686C20.9563 4.7858 20.931 4.75992 20.9003 4.7419C20.8696 4.72389 20.8347 4.71438 20.7991 4.71436H18.0326V11.2144H18.9256C19.0251 11.2144 19.1205 11.2539 19.1908 11.3242C19.2611 11.3945 19.3006 11.4899 19.3006 11.5894C19.3006 11.6888 19.2611 11.7842 19.1908 11.8545C19.1205 11.9248 19.0251 11.9644 18.9256 11.9644H17.6576C17.5582 11.9644 17.4628 11.9248 17.3925 11.8545C17.3221 11.7842 17.2826 11.6888 17.2826 11.5894V4.33936C17.2826 4.2399 17.3221 4.14452 17.3925 4.07419C17.4628 4.00386 17.5582 3.96436 17.6576 3.96436H20.7991C20.9683 3.96427 21.1344 4.00937 21.2803 4.09499C21.4263 4.1806 21.5467 4.30363 21.6291 4.45136L23.6586 8.09136C23.8516 8.43782 23.9529 8.82779 23.9531 9.22435V11.3194C23.9529 11.4899 23.885 11.6535 23.7643 11.7741C23.6437 11.8947 23.4802 11.9626 23.3096 11.9629ZM8.09062 11.9629H4.49512C4.39566 11.9629 4.30028 11.9233 4.22995 11.853C4.15963 11.7827 4.12012 11.6873 4.12012 11.5879V8.70386C4.12012 8.6044 4.15963 8.50902 4.22995 8.43869C4.30028 8.36836 4.39566 8.32886 4.49512 8.32886C4.59457 8.32886 4.68996 8.36836 4.76028 8.43869C4.83061 8.50902 4.87012 8.6044 4.87012 8.70386V11.2129H8.09062C8.19007 11.2129 8.28546 11.2524 8.35578 11.3227C8.42611 11.393 8.46562 11.4884 8.46562 11.5879C8.46562 11.6873 8.42611 11.7827 8.35578 11.853C8.28546 11.9233 8.19007 11.9629 8.09062 11.9629ZM4.49512 7.37335C4.39566 7.37335 4.30028 7.33385 4.22995 7.26352C4.15963 7.19319 4.12012 7.09781 4.12012 6.99835V4.48036C4.12012 4.3809 4.15963 4.28552 4.22995 4.21519C4.30028 4.14486 4.39566 4.10536 4.49512 4.10536C4.59457 4.10536 4.68996 4.14486 4.76028 4.21519C4.83061 4.28552 4.87012 4.3809 4.87012 4.48036V6.99986C4.86972 7.09905 4.83004 7.19405 4.75975 7.26405C4.68947 7.33405 4.59431 7.37336 4.49512 7.37335Z"/>
</mask>
<path d="M23.3096 11.9629H22.2841C22.1847 11.9629 22.0893 11.9233 22.019 11.853C21.9486 11.7827 21.9091 11.6873 21.9091 11.5879C21.9091 11.4884 21.9486 11.393 22.019 11.3227C22.0893 11.2524 22.1847 11.2129 22.2841 11.2129H23.2036V9.22435C23.2034 8.95551 23.1345 8.69117 23.0036 8.45636L20.9736 4.81686C20.9563 4.7858 20.931 4.75992 20.9003 4.7419C20.8696 4.72389 20.8347 4.71438 20.7991 4.71436H18.0326V11.2144H18.9256C19.0251 11.2144 19.1205 11.2539 19.1908 11.3242C19.2611 11.3945 19.3006 11.4899 19.3006 11.5894C19.3006 11.6888 19.2611 11.7842 19.1908 11.8545C19.1205 11.9248 19.0251 11.9644 18.9256 11.9644H17.6576C17.5582 11.9644 17.4628 11.9248 17.3925 11.8545C17.3221 11.7842 17.2826 11.6888 17.2826 11.5894V4.33936C17.2826 4.2399 17.3221 4.14452 17.3925 4.07419C17.4628 4.00386 17.5582 3.96436 17.6576 3.96436H20.7991C20.9683 3.96427 21.1344 4.00937 21.2803 4.09499C21.4263 4.1806 21.5467 4.30363 21.6291 4.45136L23.6586 8.09136C23.8516 8.43782 23.9529 8.82779 23.9531 9.22435V11.3194C23.9529 11.4899 23.885 11.6535 23.7643 11.7741C23.6437 11.8947 23.4802 11.9626 23.3096 11.9629ZM8.09062 11.9629H4.49512C4.39566 11.9629 4.30028 11.9233 4.22995 11.853C4.15963 11.7827 4.12012 11.6873 4.12012 11.5879V8.70386C4.12012 8.6044 4.15963 8.50902 4.22995 8.43869C4.30028 8.36836 4.39566 8.32886 4.49512 8.32886C4.59457 8.32886 4.68996 8.36836 4.76028 8.43869C4.83061 8.50902 4.87012 8.6044 4.87012 8.70386V11.2129H8.09062C8.19007 11.2129 8.28546 11.2524 8.35578 11.3227C8.42611 11.393 8.46562 11.4884 8.46562 11.5879C8.46562 11.6873 8.42611 11.7827 8.35578 11.853C8.28546 11.9233 8.19007 11.9629 8.09062 11.9629ZM4.49512 7.37335C4.39566 7.37335 4.30028 7.33385 4.22995 7.26352C4.15963 7.19319 4.12012 7.09781 4.12012 6.99835V4.48036C4.12012 4.3809 4.15963 4.28552 4.22995 4.21519C4.30028 4.14486 4.39566 4.10536 4.49512 4.10536C4.59457 4.10536 4.68996 4.14486 4.76028 4.21519C4.83061 4.28552 4.87012 4.3809 4.87012 4.48036V6.99986C4.86972 7.09905 4.83004 7.19405 4.75975 7.26405C4.68947 7.33405 4.59431 7.37336 4.49512 7.37335Z" fill="#5B4239"/>
<path d="M23.3096 11.9629V13.9629L23.3127 13.9629L23.3096 11.9629ZM23.2036 11.2129V13.2129H25.2036V11.2129H23.2036ZM23.2036 9.22435H25.2036V9.22256L23.2036 9.22435ZM23.0036 8.45636L24.7505 7.48241L24.7503 7.48212L23.0036 8.45636ZM20.9736 4.81686L22.7203 3.84262L22.7199 3.84186L20.9736 4.81686ZM20.7991 4.71436L20.8004 2.71436H20.7991V4.71436ZM18.0326 4.71436V2.71436H16.0326V4.71436H18.0326ZM18.0326 11.2144H16.0326V13.2144H18.0326V11.2144ZM17.2826 4.33936H19.2826H17.2826ZM20.7991 3.96436V5.96436L20.8001 5.96436L20.7991 3.96436ZM21.6291 4.45136L23.3759 3.4774L23.3755 3.47662L21.6291 4.45136ZM23.6586 8.09136L25.4059 7.11828L25.4054 7.1174L23.6586 8.09136ZM23.9531 9.22435H25.9531V9.22339L23.9531 9.22435ZM23.9531 11.3194L25.9531 11.3225V11.3194H23.9531ZM4.87012 11.2129H2.87012V13.2129H4.87012V11.2129ZM4.49512 7.37335L4.49513 5.37335H4.49512V7.37335ZM4.12012 6.99835H2.12012H4.12012ZM4.87012 6.99986L6.87012 7.00786V6.99986H4.87012ZM23.3096 9.96285H22.2841V13.9629H23.3096V9.96285ZM22.2841 9.96285C22.7151 9.96285 23.1284 10.1341 23.4332 10.4388L20.6047 13.2672C21.0501 13.7126 21.6542 13.9629 22.2841 13.9629V9.96285ZM23.4332 10.4388C23.7379 10.7436 23.9091 11.1569 23.9091 11.5879H19.9091C19.9091 12.2177 20.1593 12.8218 20.6047 13.2672L23.4332 10.4388ZM23.9091 11.5879C23.9091 12.0188 23.7379 12.4322 23.4332 12.7369L20.6047 9.90848C20.1593 10.3539 19.9091 10.958 19.9091 11.5879H23.9091ZM23.4332 12.7369C23.1284 13.0417 22.7151 13.2129 22.2841 13.2129V9.21285C21.6542 9.21285 21.0501 9.46307 20.6047 9.90848L23.4332 12.7369ZM22.2841 13.2129H23.2036V9.21285H22.2841V13.2129ZM25.2036 11.2129V9.22435H21.2036V11.2129H25.2036ZM25.2036 9.22256C25.2031 8.6134 25.0471 8.01446 24.7505 7.48241L21.2568 9.4303C21.222 9.36788 21.2037 9.29762 21.2036 9.22615L25.2036 9.22256ZM24.7503 7.48212L22.7203 3.84262L19.2269 5.79109L21.2569 9.43059L24.7503 7.48212ZM22.7199 3.84186C22.5291 3.50018 22.2506 3.21558 21.9132 3.0174L19.8873 6.46641C19.6113 6.30426 19.3835 6.07141 19.2274 5.79186L22.7199 3.84186ZM21.9132 3.0174C21.5758 2.81919 21.1916 2.7146 20.8004 2.71436L20.7979 6.71436C20.4777 6.71416 20.1634 6.62858 19.8873 6.46641L21.9132 3.0174ZM20.7991 2.71436H18.0326V6.71436H20.7991V2.71436ZM16.0326 4.71436V11.2144H20.0326V4.71436H16.0326ZM18.0326 13.2144H18.9256V9.21436H18.0326V13.2144ZM18.9256 13.2144C18.4946 13.2144 18.0813 13.0432 17.7766 12.7384L20.605 9.90998C20.1596 9.46457 19.5555 9.21436 18.9256 9.21436V13.2144ZM17.7766 12.7384C17.4718 12.4337 17.3006 12.0203 17.3006 11.5894H21.3006C21.3006 10.9595 21.0504 10.3554 20.605 9.90998L17.7766 12.7384ZM17.3006 11.5894C17.3006 11.1584 17.4718 10.7451 17.7766 10.4403L20.605 13.2687C21.0504 12.8233 21.3006 12.2192 21.3006 11.5894H17.3006ZM17.7766 10.4403C18.0813 10.1356 18.4946 9.96436 18.9256 9.96436V13.9644C19.5555 13.9644 20.1596 13.7141 20.605 13.2687L17.7766 10.4403ZM18.9256 9.96436H17.6576V13.9644H18.9256V9.96436ZM17.6576 9.96436C18.0886 9.96436 18.5019 10.1356 18.8067 10.4403L15.9782 13.2687C16.4236 13.7141 17.0277 13.9644 17.6576 13.9644V9.96436ZM18.8067 10.4403C19.1114 10.7451 19.2826 11.1584 19.2826 11.5894H15.2826C15.2826 12.2192 15.5328 12.8233 15.9782 13.2687L18.8067 10.4403ZM19.2826 11.5894V4.33936H15.2826V11.5894H19.2826ZM19.2826 4.33936C19.2826 4.77033 19.1114 5.18365 18.8067 5.4884L15.9782 2.65998C15.5328 3.10538 15.2826 3.70947 15.2826 4.33936H19.2826ZM18.8067 5.4884C18.5019 5.79315 18.0886 5.96436 17.6576 5.96436V1.96436C17.0277 1.96436 16.4236 2.21457 15.9782 2.65998L18.8067 5.4884ZM17.6576 5.96436H20.7991V1.96436H17.6576V5.96436ZM20.8001 5.96436C20.6131 5.96445 20.4295 5.91461 20.2682 5.81997L22.2925 2.37C21.8394 2.10413 21.3235 1.9641 20.7981 1.96436L20.8001 5.96436ZM20.2682 5.81997C20.1069 5.72534 19.9738 5.58936 19.8827 5.42609L23.3755 3.47662C23.1195 3.0179 22.7456 2.63586 22.2925 2.37L20.2682 5.81997ZM19.8823 5.42531L21.9118 9.06531L25.4054 7.1174L23.3759 3.4774L19.8823 5.42531ZM21.9113 9.06443C21.9387 9.11363 21.9531 9.16901 21.9531 9.22532L25.9531 9.22339C25.9528 8.48657 25.7644 7.76201 25.4059 7.11828L21.9113 9.06443ZM21.9531 9.22435V11.3194H25.9531V9.22435H21.9531ZM21.9531 11.3163C21.9537 10.9575 22.0965 10.6136 22.3501 10.3599L25.1786 13.1883C25.6735 12.6934 25.952 12.0224 25.9531 11.3225L21.9531 11.3163ZM22.3501 10.3599C22.6038 10.1062 22.9477 9.96341 23.3065 9.96286L23.3127 13.9629C24.0127 13.9618 24.6836 13.6832 25.1786 13.1883L22.3501 10.3599ZM8.09062 9.96285H4.49512V13.9629H8.09062V9.96285ZM4.49512 9.96285C4.92609 9.96285 5.33942 10.1341 5.64417 10.4388L2.81574 13.2672C3.26114 13.7126 3.86523 13.9629 4.49512 13.9629V9.96285ZM5.64417 10.4388C5.94891 10.7436 6.12012 11.1569 6.12012 11.5879H2.12012C2.12012 12.2177 2.37034 12.8218 2.81574 13.2672L5.64417 10.4388ZM6.12012 11.5879V8.70386H2.12012V11.5879H6.12012ZM6.12012 8.70386C6.12012 9.13483 5.94891 9.54816 5.64417 9.8529L2.81574 7.02448C2.37034 7.46987 2.12012 8.07397 2.12012 8.70386H6.12012ZM5.64417 9.8529C5.33942 10.1577 4.92609 10.3289 4.49512 10.3289V6.32886C3.86523 6.32886 3.26114 6.57908 2.81574 7.02448L5.64417 9.8529ZM4.49512 10.3289C4.06415 10.3289 3.65082 10.1577 3.34607 9.8529L6.1745 7.02448C5.72909 6.57907 5.125 6.32886 4.49512 6.32886V10.3289ZM3.34607 9.8529C3.04132 9.54815 2.87012 9.13483 2.87012 8.70386H6.87012C6.87012 8.07397 6.6199 7.46988 6.1745 7.02448L3.34607 9.8529ZM2.87012 8.70386V11.2129H6.87012V8.70386H2.87012ZM4.87012 13.2129H8.09062V9.21285H4.87012V13.2129ZM8.09062 13.2129C7.65964 13.2129 7.24632 13.0416 6.94157 12.7369L9.77 9.90848C9.3246 9.46308 8.72051 9.21285 8.09062 9.21285V13.2129ZM6.94157 12.7369C6.63683 12.4322 6.46562 12.0188 6.46562 11.5879H10.4656C10.4656 10.958 10.2154 10.3539 9.77 9.90848L6.94157 12.7369ZM6.46562 11.5879C6.46562 11.1569 6.63683 10.7435 6.94157 10.4388L9.77 13.2672C10.2154 12.8218 10.4656 12.2178 10.4656 11.5879H6.46562ZM6.94157 10.4388C7.24632 10.1341 7.65964 9.96285 8.09062 9.96285V13.9629C8.72051 13.9629 9.3246 13.7126 9.77 13.2672L6.94157 10.4388ZM4.49512 5.37335C4.92609 5.37335 5.33942 5.54456 5.64417 5.84931L2.81574 8.67773C3.26114 9.12313 3.86523 9.37335 4.49512 9.37335V5.37335ZM5.64417 5.84931C5.94891 6.15405 6.12012 6.56738 6.12012 6.99835H2.12012C2.12012 7.62825 2.37034 8.23234 2.81574 8.67773L5.64417 5.84931ZM6.12012 6.99835V4.48036H2.12012V6.99835H6.12012ZM6.12012 4.48036C6.12012 4.91133 5.94891 5.32466 5.64417 5.6294L2.81574 2.80098C2.37034 3.24637 2.12012 3.85047 2.12012 4.48036H6.12012ZM5.64417 5.6294C5.33942 5.93415 4.92609 6.10536 4.49512 6.10536V2.10536C3.86523 2.10536 3.26114 2.35558 2.81574 2.80098L5.64417 5.6294ZM4.49512 6.10536C4.06415 6.10536 3.65082 5.93415 3.34607 5.6294L6.1745 2.80098C5.72909 2.35557 5.125 2.10536 4.49512 2.10536V6.10536ZM3.34607 5.6294C3.04132 5.32465 2.87012 4.91133 2.87012 4.48036H6.87012C6.87012 3.85047 6.6199 3.24638 6.1745 2.80098L3.34607 5.6294ZM2.87012 4.48036V6.99986H6.87012V4.48036H2.87012ZM2.87013 6.99186C2.87185 6.56201 3.04381 6.15035 3.34838 5.84701L6.17113 8.6811C6.61626 8.23775 6.86759 7.63609 6.8701 7.00785L2.87013 6.99186ZM3.34838 5.84701C3.65294 5.54367 4.06528 5.37335 4.49513 5.37335L4.4951 9.37335C5.12335 9.37336 5.72601 9.12444 6.17113 8.6811L3.34838 5.84701Z" fill="#5B4239" mask="url(#path-3-inside-2_35_420)"/>
<mask id="path-5-inside-3_35_420" fill="white">
<path d="M17.6583 11.9628H11.4497C11.3503 11.9628 11.2549 11.9233 11.1846 11.853C11.1143 11.7827 11.0747 11.6873 11.0747 11.5878C11.0747 11.4884 11.1143 11.393 11.1846 11.3227C11.2549 11.2524 11.3503 11.2128 11.4497 11.2128H17.2833V1.40234H4.87075V2.94684C4.87075 3.0463 4.83124 3.14168 4.76092 3.21201C4.69059 3.28233 4.59521 3.32184 4.49575 3.32184C4.39629 3.32184 4.30091 3.28233 4.23059 3.21201C4.16026 3.14168 4.12075 3.0463 4.12075 2.94684V1.33334C4.12101 1.15273 4.19292 0.979589 4.32068 0.85192C4.44844 0.72425 4.62163 0.652476 4.80225 0.652344H17.3523C17.5328 0.652608 17.7058 0.724441 17.8335 0.852096C17.9612 0.979751 18.033 1.15281 18.0333 1.33334V11.5878C18.0333 11.6873 17.9937 11.7827 17.9234 11.853C17.8531 11.9233 17.7577 11.9628 17.6583 11.9628ZM5.97825 9.07884H1.21875C1.11929 9.07884 1.02391 9.03933 0.953585 8.96901C0.883259 8.89868 0.84375 8.8033 0.84375 8.70384C0.84375 8.60439 0.883259 8.50901 0.953585 8.43868C1.02391 8.36835 1.11929 8.32884 1.21875 8.32884H5.97825C6.07771 8.32884 6.17309 8.36835 6.24342 8.43868C6.31374 8.50901 6.35325 8.60439 6.35325 8.70384C6.35325 8.8033 6.31374 8.89868 6.24342 8.96901C6.17309 9.03933 6.07771 9.07884 5.97825 9.07884Z"/>
</mask>
<path d="M17.6583 11.9628H11.4497C11.3503 11.9628 11.2549 11.9233 11.1846 11.853C11.1143 11.7827 11.0747 11.6873 11.0747 11.5878C11.0747 11.4884 11.1143 11.393 11.1846 11.3227C11.2549 11.2524 11.3503 11.2128 11.4497 11.2128H17.2833V1.40234H4.87075V2.94684C4.87075 3.0463 4.83124 3.14168 4.76092 3.21201C4.69059 3.28233 4.59521 3.32184 4.49575 3.32184C4.39629 3.32184 4.30091 3.28233 4.23059 3.21201C4.16026 3.14168 4.12075 3.0463 4.12075 2.94684V1.33334C4.12101 1.15273 4.19292 0.979589 4.32068 0.85192C4.44844 0.72425 4.62163 0.652476 4.80225 0.652344H17.3523C17.5328 0.652608 17.7058 0.724441 17.8335 0.852096C17.9612 0.979751 18.033 1.15281 18.0333 1.33334V11.5878C18.0333 11.6873 17.9937 11.7827 17.9234 11.853C17.8531 11.9233 17.7577 11.9628 17.6583 11.9628ZM5.97825 9.07884H1.21875C1.11929 9.07884 1.02391 9.03933 0.953585 8.96901C0.883259 8.89868 0.84375 8.8033 0.84375 8.70384C0.84375 8.60439 0.883259 8.50901 0.953585 8.43868C1.02391 8.36835 1.11929 8.32884 1.21875 8.32884H5.97825C6.07771 8.32884 6.17309 8.36835 6.24342 8.43868C6.31374 8.50901 6.35325 8.60439 6.35325 8.70384C6.35325 8.8033 6.31374 8.89868 6.24342 8.96901C6.17309 9.03933 6.07771 9.07884 5.97825 9.07884Z" fill="#5B4239"/>
<path d="M17.2833 11.2128V13.2128H19.2833V11.2128H17.2833ZM17.2833 1.40234H19.2833V-0.597656H17.2833V1.40234ZM4.87075 1.40234V-0.597656H2.87075V1.40234H4.87075ZM4.12075 1.33334L2.12075 1.33041V1.33334H4.12075ZM4.80225 0.652344V-1.34766L4.80079 -1.34766L4.80225 0.652344ZM17.3523 0.652344L17.3552 -1.34766H17.3523V0.652344ZM18.0333 1.33334H20.0333L20.0332 1.33041L18.0333 1.33334ZM18.0333 11.5878H20.0333H18.0333ZM1.21875 9.07884V11.0788V9.07884ZM5.97825 8.32884V10.3288V8.32884ZM17.6583 9.96284H11.4497V13.9628H17.6583V9.96284ZM11.4497 9.96284C11.8807 9.96284 12.294 10.134 12.5988 10.4388L9.77037 13.2672C10.2158 13.7126 10.8199 13.9628 11.4497 13.9628V9.96284ZM12.5988 10.4388C12.9035 10.7435 13.0747 11.1569 13.0747 11.5878H9.07475C9.07475 12.2177 9.32497 12.8218 9.77037 13.2672L12.5988 10.4388ZM13.0747 11.5878C13.0747 12.0188 12.9035 12.4321 12.5988 12.7369L9.77037 9.90846C9.32497 10.3539 9.07475 10.958 9.07475 11.5878H13.0747ZM12.5988 12.7369C12.294 13.0416 11.8807 13.2128 11.4497 13.2128V9.21284C10.8199 9.21284 10.2158 9.46306 9.77037 9.90846L12.5988 12.7369ZM11.4497 13.2128H17.2833V9.21284H11.4497V13.2128ZM19.2833 11.2128V1.40234H15.2833V11.2128H19.2833ZM17.2833 -0.597656H4.87075V3.40234H17.2833V-0.597656ZM2.87075 1.40234V2.94684H6.87075V1.40234H2.87075ZM2.87075 2.94684C2.87075 2.51587 3.04195 2.10254 3.3467 1.79779L6.17513 4.62622C6.62053 4.18082 6.87075 3.57673 6.87075 2.94684H2.87075ZM3.3467 1.79779C3.65145 1.49304 4.06478 1.32184 4.49575 1.32184V5.32184C5.12563 5.32184 5.72973 5.07162 6.17513 4.62622L3.3467 1.79779ZM4.49575 1.32184C4.92672 1.32184 5.34005 1.49305 5.6448 1.79779L2.81637 4.62622C3.26177 5.07162 3.86586 5.32184 4.49575 5.32184V1.32184ZM5.6448 1.79779C5.94954 2.10254 6.12075 2.51586 6.12075 2.94684H2.12075C2.12075 3.57674 2.37098 4.18083 2.81637 4.62622L5.6448 1.79779ZM6.12075 2.94684V1.33334H2.12075V2.94684H6.12075ZM6.12075 1.33628C6.12024 1.68533 5.98128 2.01993 5.73437 2.26665L2.90699 -0.562813C2.40455 -0.0607484 2.12179 0.620121 2.12075 1.33041L6.12075 1.33628ZM5.73437 2.26665C5.48747 2.51338 5.15277 2.65209 4.80371 2.65234L4.80079 -1.34766C4.0905 -1.34714 3.40942 -1.06488 2.90699 -0.562813L5.73437 2.26665ZM4.80225 2.65234H17.3523V-1.34766H4.80225V2.65234ZM17.3493 2.65234C17.0004 2.65183 16.666 2.51301 16.4193 2.26631L19.2477 -0.562117C18.7457 -1.06413 18.0651 -1.34661 17.3552 -1.34765L17.3493 2.65234ZM16.4193 2.26631C16.1726 2.01961 16.0338 1.68516 16.0333 1.33627L20.0332 1.33041C20.0322 0.620462 19.7497 -0.0601099 19.2477 -0.562117L16.4193 2.26631ZM16.0333 1.33334V11.5878H20.0333V1.33334H16.0333ZM16.0333 11.5878C16.0333 11.1568 16.2045 10.7435 16.5092 10.4388L19.3376 13.2672C19.783 12.8218 20.0333 12.2178 20.0333 11.5878H16.0333ZM16.5092 10.4388C16.8139 10.1341 17.2273 9.96284 17.6583 9.96284V13.9628C18.2881 13.9628 18.8922 13.7126 19.3376 13.2672L16.5092 10.4388ZM5.97825 7.07884H1.21875V11.0788H5.97825V7.07884ZM1.21875 7.07884C1.64974 7.07884 2.06306 7.25005 2.3678 7.55479L-0.460629 10.3832C-0.0152362 10.8286 0.588852 11.0788 1.21875 11.0788V7.07884ZM2.3678 7.55479C2.67254 7.85954 2.84375 8.27286 2.84375 8.70384H-1.15625C-1.15625 9.33374 -0.906025 9.93783 -0.460629 10.3832L2.3678 7.55479ZM2.84375 8.70384C2.84375 9.13482 2.67255 9.54814 2.3678 9.85289L-0.460629 7.02447C-0.906029 7.46987 -1.15625 8.07396 -1.15625 8.70384H2.84375ZM2.3678 9.85289C2.06305 10.1576 1.64972 10.3288 1.21875 10.3288V6.32884C0.588865 6.32884 -0.015227 6.57906 -0.460629 7.02447L2.3678 9.85289ZM1.21875 10.3288H5.97825V6.32884H1.21875V10.3288ZM5.97825 10.3288C5.54728 10.3288 5.13395 10.1576 4.8292 9.85289L7.65763 7.02447C7.21223 6.57906 6.60813 6.32884 5.97825 6.32884V10.3288ZM4.8292 9.85289C4.52445 9.54814 4.35325 9.13482 4.35325 8.70384H8.35325C8.35325 8.07396 8.10303 7.46987 7.65763 7.02447L4.8292 9.85289ZM4.35325 8.70384C4.35325 8.27287 4.52446 7.85954 4.8292 7.55479L7.65763 10.3832C8.10303 9.93782 8.35325 9.33373 8.35325 8.70384H4.35325ZM4.8292 7.55479C5.13394 7.25005 5.54727 7.07884 5.97825 7.07884V11.0788C6.60815 11.0788 7.21224 10.8286 7.65763 10.3832L4.8292 7.55479Z" fill="#5B4239" mask="url(#path-5-inside-3_35_420)"/>
<mask id="path-7-inside-4_35_420" fill="white">
<path d="M9.7706 7.37328H3.1291C3.02965 7.37328 2.93426 7.33377 2.86394 7.26344C2.79361 7.19312 2.7541 7.09773 2.7541 6.99828C2.7541 6.89882 2.79361 6.80344 2.86394 6.73311C2.93426 6.66279 3.02965 6.62328 3.1291 6.62328H9.7706C9.87006 6.62328 9.96544 6.66279 10.0358 6.73311C10.1061 6.80344 10.1456 6.89882 10.1456 6.99828C10.1456 7.09773 10.1061 7.19312 10.0358 7.26344C9.96544 7.33377 9.87006 7.37328 9.7706 7.37328ZM2.9226 5.39328H0.329102C0.229645 5.39328 0.134263 5.35377 0.0639365 5.28344C-0.00638963 5.21312 -0.0458984 5.11773 -0.0458984 5.01828C-0.0458984 4.91882 -0.00638963 4.82344 0.0639365 4.75311C0.134263 4.68279 0.229645 4.64328 0.329102 4.64328H2.9226C3.02206 4.64328 3.11744 4.68279 3.18777 4.75311C3.25809 4.82344 3.2976 4.91882 3.2976 5.01828C3.2976 5.11773 3.25809 5.21312 3.18777 5.28344C3.11744 5.35377 3.02206 5.39328 2.9226 5.39328ZM7.0811 3.32178H2.5031C2.40365 3.32178 2.30826 3.28227 2.23794 3.21194C2.16761 3.14162 2.1281 3.04623 2.1281 2.94678C2.1281 2.84732 2.16761 2.75194 2.23794 2.68161C2.30826 2.61129 2.40365 2.57178 2.5031 2.57178H7.0811C7.18056 2.57178 7.27594 2.61129 7.34627 2.68161C7.41659 2.75194 7.4561 2.84732 7.4561 2.94678C7.4561 3.04623 7.41659 3.14162 7.34627 3.21194C7.27594 3.28227 7.18056 3.32178 7.0811 3.32178Z"/>
</mask>
<path d="M9.7706 7.37328H3.1291C3.02965 7.37328 2.93426 7.33377 2.86394 7.26344C2.79361 7.19312 2.7541 7.09773 2.7541 6.99828C2.7541 6.89882 2.79361 6.80344 2.86394 6.73311C2.93426 6.66279 3.02965 6.62328 3.1291 6.62328H9.7706C9.87006 6.62328 9.96544 6.66279 10.0358 6.73311C10.1061 6.80344 10.1456 6.89882 10.1456 6.99828C10.1456 7.09773 10.1061 7.19312 10.0358 7.26344C9.96544 7.33377 9.87006 7.37328 9.7706 7.37328ZM2.9226 5.39328H0.329102C0.229645 5.39328 0.134263 5.35377 0.0639365 5.28344C-0.00638963 5.21312 -0.0458984 5.11773 -0.0458984 5.01828C-0.0458984 4.91882 -0.00638963 4.82344 0.0639365 4.75311C0.134263 4.68279 0.229645 4.64328 0.329102 4.64328H2.9226C3.02206 4.64328 3.11744 4.68279 3.18777 4.75311C3.25809 4.82344 3.2976 4.91882 3.2976 5.01828C3.2976 5.11773 3.25809 5.21312 3.18777 5.28344C3.11744 5.35377 3.02206 5.39328 2.9226 5.39328ZM7.0811 3.32178H2.5031C2.40365 3.32178 2.30826 3.28227 2.23794 3.21194C2.16761 3.14162 2.1281 3.04623 2.1281 2.94678C2.1281 2.84732 2.16761 2.75194 2.23794 2.68161C2.30826 2.61129 2.40365 2.57178 2.5031 2.57178H7.0811C7.18056 2.57178 7.27594 2.61129 7.34627 2.68161C7.41659 2.75194 7.4561 2.84732 7.4561 2.94678C7.4561 3.04623 7.41659 3.14162 7.34627 3.21194C7.27594 3.28227 7.18056 3.32178 7.0811 3.32178Z" fill="#5B4239"/>
<path d="M9.7706 7.37328V9.37328V7.37328ZM3.1291 7.37328L3.1291 9.37328H3.1291V7.37328ZM3.1291 6.62328V4.62328H3.1291L3.1291 6.62328ZM9.7706 6.62328V4.62328V6.62328ZM-0.0458984 5.01828H-2.0459H-0.0458984ZM3.2976 5.01828H5.2976H3.2976ZM2.1281 2.94678H0.128102H2.1281ZM9.7706 5.37328H3.1291V9.37328H9.7706V5.37328ZM3.1291 5.37328C3.56008 5.37328 3.9734 5.54448 4.27815 5.84923L1.44972 8.67766C1.89512 9.12306 2.49922 9.37328 3.1291 9.37328L3.1291 5.37328ZM4.27815 5.84923C4.5829 6.15397 4.7541 6.5673 4.7541 6.99828H0.754102C0.754102 7.62817 1.00432 8.23226 1.44972 8.67766L4.27815 5.84923ZM4.7541 6.99828C4.7541 7.42926 4.5829 7.84258 4.27815 8.14733L1.44972 5.3189C1.00432 5.7643 0.754102 6.36839 0.754102 6.99828H4.7541ZM4.27815 8.14733C3.9734 8.45207 3.56008 8.62328 3.1291 8.62328L3.1291 4.62328C2.49922 4.62328 1.89512 4.8735 1.44972 5.3189L4.27815 8.14733ZM3.1291 8.62328H9.7706V4.62328H3.1291V8.62328ZM9.7706 8.62328C9.33963 8.62328 8.9263 8.45208 8.62155 8.14733L11.45 5.3189C11.0046 4.8735 10.4005 4.62328 9.7706 4.62328V8.62328ZM8.62155 8.14733C8.3168 7.84258 8.1456 7.42925 8.1456 6.99828H12.1456C12.1456 6.36839 11.8954 5.7643 11.45 5.3189L8.62155 8.14733ZM8.1456 6.99828C8.1456 6.56731 8.3168 6.15398 8.62155 5.84923L11.45 8.67766C11.8954 8.23225 12.1456 7.62816 12.1456 6.99828H8.1456ZM8.62155 5.84923C8.9263 5.54448 9.33963 5.37328 9.7706 5.37328V9.37328C10.4005 9.37328 11.0046 9.12306 11.45 8.67766L8.62155 5.84923ZM2.9226 3.39328H0.329102V7.39328H2.9226V3.39328ZM0.329102 3.39328C0.760087 3.39328 1.17341 3.56449 1.47815 3.86923L-1.35028 6.69766C-0.904885 7.14305 -0.300797 7.39328 0.329102 7.39328V3.39328ZM1.47815 3.86923C1.78289 4.17397 1.9541 4.5873 1.9541 5.01828H-2.0459C-2.0459 5.64817 -1.79567 6.25226 -1.35028 6.69766L1.47815 3.86923ZM1.9541 5.01828C1.9541 5.44925 1.7829 5.86258 1.47815 6.16733L-1.35028 3.3389C-1.79568 3.7843 -2.0459 4.38839 -2.0459 5.01828H1.9541ZM1.47815 6.16733C1.1734 6.47208 0.760074 6.64328 0.329102 6.64328V2.64328C-0.300784 2.64328 -0.904875 2.8935 -1.35028 3.3389L1.47815 6.16733ZM0.329102 6.64328H2.9226V2.64328H0.329102V6.64328ZM2.9226 6.64328C2.49163 6.64328 2.0783 6.47207 1.77355 6.16733L4.60198 3.3389C4.15658 2.8935 3.55249 2.64328 2.9226 2.64328V6.64328ZM1.77355 6.16733C1.46881 5.86258 1.2976 5.44926 1.2976 5.01828H5.2976C5.2976 4.38839 5.04738 3.7843 4.60198 3.3389L1.77355 6.16733ZM1.2976 5.01828C1.2976 4.58729 1.46881 4.17397 1.77355 3.86923L4.60198 6.69766C5.04737 6.25226 5.2976 5.64817 5.2976 5.01828H1.2976ZM1.77355 3.86923C2.07829 3.56449 2.49161 3.39328 2.9226 3.39328V7.39328C3.5525 7.39328 4.15659 7.14305 4.60198 6.69766L1.77355 3.86923ZM7.0811 1.32178H2.5031V5.32178H7.0811V1.32178ZM2.5031 1.32178C2.93407 1.32178 3.3474 1.49298 3.65215 1.79773L0.823723 4.62616C1.26912 5.07156 1.87322 5.32178 2.5031 5.32178V1.32178ZM3.65215 1.79773C3.9569 2.10247 4.1281 2.5158 4.1281 2.94678H0.128102C0.128102 3.57667 0.378324 4.18076 0.823723 4.62616L3.65215 1.79773ZM4.1281 2.94678C4.1281 3.37775 3.9569 3.79108 3.65215 4.09583L0.823723 1.2674C0.378324 1.7128 0.128102 2.31689 0.128102 2.94678H4.1281ZM3.65215 4.09583C3.34741 4.40057 2.93408 4.57178 2.5031 4.57178V0.571777C1.87321 0.571777 1.26912 0.822002 0.823723 1.2674L3.65215 4.09583ZM2.5031 4.57178H7.0811V0.571777H2.5031V4.57178ZM7.0811 4.57178C6.65012 4.57178 6.2368 4.40057 5.93205 4.09583L8.76048 1.2674C8.31508 0.822003 7.71099 0.571777 7.0811 0.571777V4.57178ZM5.93205 4.09583C5.62731 3.79108 5.4561 3.37776 5.4561 2.94678H9.4561C9.4561 2.31688 9.20588 1.7128 8.76048 1.2674L5.93205 4.09583ZM5.4561 2.94678C5.4561 2.5158 5.62731 2.10247 5.93205 1.79773L8.76048 4.62616C9.20588 4.18076 9.4561 3.57667 9.4561 2.94678H5.4561ZM5.93205 1.79773C6.2368 1.49298 6.65013 1.32178 7.0811 1.32178V5.32178C7.71099 5.32178 8.31508 5.07156 8.76048 4.62616L5.93205 1.79773Z" fill="#5B4239" mask="url(#path-7-inside-4_35_420)"/>
</svg>
