<svg width="120" height="120" viewBox="0 0 120 120" fill="none" xmlns="http://www.w3.org/2000/svg">
<path d="M59.7001 4.80005C48.8419 4.80005 38.2275 8.01988 29.1993 14.0524C20.171 20.0849 13.1343 28.6591 8.97909 38.6907C4.82384 48.7224 3.73663 59.7609 5.85496 70.4105C7.97329 81.0601 13.202 90.8423 20.8799 98.5202C28.5578 106.198 38.34 111.427 48.9896 113.545C59.6392 115.663 70.6777 114.576 80.7094 110.421C90.741 106.266 99.3152 99.2291 105.348 90.2008C111.38 81.1726 114.6 70.5582 114.6 59.7C114.6 45.1397 108.816 31.1756 98.5202 20.8799C88.2245 10.5841 74.2604 4.80005 59.7001 4.80005ZM97.1319 59.7C97.1319 60.3619 96.869 60.9966 96.401 61.4646C95.933 61.9326 95.2983 62.1955 94.6364 62.1955C93.9746 62.1955 93.3399 61.9326 92.8719 61.4646C92.4039 60.9966 92.141 60.3619 92.141 59.7V52.2137H27.2592V74.6728C27.2618 76.6575 28.0514 78.5601 29.4548 79.9635C30.8582 81.3669 32.7608 82.1565 34.7455 82.1591H59.7001C60.3619 82.1591 60.9966 82.422 61.4646 82.89C61.9326 83.358 62.1955 83.9928 62.1955 84.6546C62.1955 85.3164 61.9326 85.9512 61.4646 86.4191C60.9966 86.8871 60.3619 87.15 59.7001 87.15H34.7455C31.4376 87.1461 28.2662 85.8302 25.9271 83.4912C23.5881 81.1521 22.2722 77.9807 22.2683 74.6728V44.7273C22.2722 41.4194 23.5881 38.248 25.9271 35.9089C28.2662 33.5698 31.4376 32.254 34.7455 32.25H84.6546C87.9626 32.254 91.1339 33.5698 93.473 35.9089C95.8121 38.248 97.1279 41.4194 97.1319 44.7273V59.7Z" fill="#F44336" fill-opacity="0.8"/>
<path d="M89.0922 82.6195C88.9709 82.3236 88.7946 82.056 88.5735 81.8323L83.2644 76.2736L88.5735 70.7101C88.9951 70.2527 89.2283 69.6401 89.2231 69.0042C89.2178 68.3683 88.9744 67.76 88.5453 67.3103C88.1162 66.8607 87.5358 66.6056 86.929 66.6001C86.3221 66.5945 85.7375 66.839 85.301 67.2808L79.992 72.8443L77.3374 70.065L74.6829 67.2856C74.2438 66.8615 73.6652 66.6316 73.0681 66.6442C72.471 66.6567 71.9016 66.9106 71.4791 67.3528C71.0565 67.795 70.8134 68.3913 70.8006 69.017C70.7878 69.6427 71.0063 70.2493 71.4104 70.7101L76.7195 76.2736L71.4151 81.8371C71.0103 82.2973 70.791 82.9036 70.8029 83.5293C70.8149 84.155 71.0572 84.7517 71.4791 85.1945C71.9011 85.6373 72.4701 85.8921 73.0672 85.9055C73.6643 85.9189 74.2432 85.6899 74.6829 85.2664L79.992 79.7029L85.301 85.2616C85.5145 85.4932 85.7699 85.678 86.0523 85.8051C86.3346 85.9322 86.6383 85.9991 86.9456 86.0019C87.2529 86.0047 87.5576 85.9433 87.8421 85.8214C88.1265 85.6994 88.3849 85.5193 88.6022 85.2916C88.8195 85.0639 88.9913 84.7931 89.1077 84.4951C89.2241 84.197 89.2826 83.8777 89.28 83.5556C89.2773 83.2336 89.2135 82.9154 89.0922 82.6195Z" fill="white"/>
<path d="M84.9998 37.5H34.9998C33.0114 37.5026 31.1053 38.2937 29.6994 39.6996C28.2934 41.1056 27.5024 43.0117 27.4998 45V47.5H92.4998V45C92.4971 43.0117 91.7061 41.1056 90.3001 39.6996C88.8942 38.2937 86.9881 37.5026 84.9998 37.5Z" fill="#F44336" fill-opacity="0.8"/>
</svg>
