<svg width="20" height="20" viewBox="0 0 20 20" fill="none" xmlns="http://www.w3.org/2000/svg">
<path d="M7.5 0H20.0002V10.7694H7.5V0Z" fill="#5B4239"/>
<path d="M18.7501 16.9232C18.7501 18.6232 17.6313 20.0001 16.25 20.0001C14.8688 20.0001 13.75 18.6232 13.75 16.9232C13.75 15.2231 14.8688 13.8462 16.25 13.8462C17.6313 13.8462 18.7501 15.2231 18.7501 16.9232Z" fill="#5B4239"/>
<path d="M16.25 12.3086C17.875 12.3086 19.25 13.5394 19.75 15.3856H20.0001V12.3086H16.25Z" fill="#5B4239"/>
<path d="M6.25009 3.07715H1.25002L0 9.23108V15.385H1.50002C2.00003 13.5388 3.37505 12.308 5.00007 12.308C6.62509 12.308 8.00011 13.5388 8.50012 15.385H12.7502C13.2502 13.5388 14.6252 12.308 16.2502 12.308H6.25009V3.07715ZM5.00007 9.23108H1.25002L2.25003 4.61563H5.00007V9.23108Z" fill="#5B4239"/>
<path d="M7.50007 16.9232C7.50007 18.6232 6.3813 20.0001 5.00003 20.0001C3.61877 20.0001 2.5 18.6232 2.5 16.9232C2.5 15.2231 3.61877 13.8462 5.00003 13.8462C6.3813 13.8462 7.50007 15.2231 7.50007 16.9232Z" fill="#5B4239"/>
</svg>
