<svg width="20" height="16" viewBox="0 0 20 16" fill="none" xmlns="http://www.w3.org/2000/svg">
<path d="M5 15C6.10457 15 7 14.1046 7 13C7 11.8954 6.10457 11 5 11C3.89543 11 3 11.8954 3 13C3 14.1046 3.89543 15 5 15Z" stroke="#5B4239" stroke-linecap="round" stroke-linejoin="round"/>
<path d="M15 15C16.1046 15 17 14.1046 17 13C17 11.8954 16.1046 11 15 11C13.8954 11 13 11.8954 13 13C13 14.1046 13.8954 15 15 15Z" stroke="#5B4239" stroke-linecap="round" stroke-linejoin="round"/>
<path d="M3 13H1V2C1 1.73478 1.10536 1.48043 1.29289 1.29289C1.48043 1.10536 1.73478 1 2 1H11V7H6M6 7L8 9M6 7L8 5" stroke="#5B4239" stroke-linecap="round" stroke-linejoin="round"/>
<path d="M7 13H13" stroke="#5B4239" stroke-linecap="round" stroke-linejoin="round"/>
<path d="M11 2H16L19 7V13H17" stroke="#5B4239" stroke-linecap="round" stroke-linejoin="round"/>
<path d="M5 15C6.10457 15 7 14.1046 7 13C7 11.8954 6.10457 11 5 11C3.89543 11 3 11.8954 3 13C3 14.1046 3.89543 15 5 15Z" stroke="#5B4239" stroke-linecap="round" stroke-linejoin="round"/>
<path d="M15 15C16.1046 15 17 14.1046 17 13C17 11.8954 16.1046 11 15 11C13.8954 11 13 11.8954 13 13C13 14.1046 13.8954 15 15 15Z" stroke="#5B4239" stroke-linecap="round" stroke-linejoin="round"/>
<path d="M3 13H1V2C1 1.73478 1.10536 1.48043 1.29289 1.29289C1.48043 1.10536 1.73478 1 2 1H11V7H6M6 7L8 9M6 7L8 5" stroke="#5B4239" stroke-linecap="round" stroke-linejoin="round"/>
<path d="M7 13H13" stroke="#5B4239" stroke-linecap="round" stroke-linejoin="round"/>
<path d="M11 2H16L19 7V13H17" stroke="#5B4239" stroke-linecap="round" stroke-linejoin="round"/>
</svg>
