<svg width="91" height="90" viewBox="0 0 91 90" fill="none" xmlns="http://www.w3.org/2000/svg">
<g clip-path="url(#clip0_2207_1775)">
<path d="M45.5 89.9409C70.3528 89.9409 90.5 69.807 90.5 44.9705C90.5 20.134 70.3528 0 45.5 0C20.6472 0 0.5 20.134 0.5 44.9705C0.5 69.807 20.6472 89.9409 45.5 89.9409Z" fill="#5B4239"/>
<path d="M41.2472 57.587C38.8397 57.587 36.4322 56.6842 34.6266 54.8786L29.7364 49.9884C27.5547 47.8066 27.5547 44.1954 29.7364 42.0136C31.9182 39.8318 35.5294 39.8318 37.7112 42.0136L41.3224 45.6248L53.4351 34.4902C55.6921 32.3837 59.3033 32.5342 61.4099 34.7912C63.5164 37.0482 63.3659 40.6594 61.1089 42.766L47.7173 55.1043C45.8365 56.7594 43.5794 57.587 41.2472 57.587Z" fill="#EAE4CE"/>
</g>
<defs>
<clipPath id="clip0_2207_1775">
<rect width="90" height="90" fill="white" transform="translate(0.5)"/>
</clipPath>
</defs>
</svg>
